<?xml version="1.0" standalone="no"?>
<!DOCTYPE svg PUBLIC "-//W3C//DTD SVG 20010904//EN"
 "http://www.w3.org/TR/2001/REC-SVG-20010904/DTD/svg10.dtd">
<svg version="1.0" xmlns="http://www.w3.org/2000/svg"
 width="120.000000pt" height="120.000000pt" viewBox="0 0 120.000000 120.000000"
 preserveAspectRatio="xMidYMid meet">
<metadata>
Created by potrace 1.14, written by Peter Selinger 2001-2017
</metadata>
<g transform="translate(0.000000,120.000000) scale(0.100000,-0.100000)"
fill="#000000" stroke="none">
<path d="M480 1047 c-38 -19 -70 -74 -70 -121 l0 -42 -121 1 c-95 1 -129 -3
-160 -17 -66 -29 -68 -44 -66 -374 3 -375 -4 -364 223 -364 l123 0 -1 213 c0
176 3 219 16 252 28 65 80 110 143 121 14 3 28 6 32 6 3 1 27 -1 53 -5 56 -9
131 -70 147 -120 47 -141 -30 -263 -178 -282 -28 -3 -44 0 -55 11 -32 31 -12
54 52 59 61 5 87 20 108 63 18 38 14 45 -22 49 -17 3 -31 -4 -44 -19 -10 -13
-22 -19 -27 -15 -4 5 0 13 10 18 21 12 22 52 2 69 -8 7 -26 10 -40 8 -14 -3
-25 -1 -25 3 0 21 61 12 82 -12 16 -19 58 -23 74 -7 12 13 -31 69 -69 87 -61
30 -126 12 -164 -46 -16 -24 -18 -54 -19 -240 l-1 -213 281 0 c306 0 315 2
351 57 21 30 22 41 20 324 -1 263 -2 297 -18 320 -28 43 -68 53 -204 54 -74 0
-123 4 -124 10 -1 6 -2 26 -4 47 -8 89 -53 118 -185 118 -56 0 -105 -5 -120
-13z m220 -86 c14 -27 13 -68 -2 -73 -7 -3 -56 -4 -108 -3 l-95 0 -3 33 c-5
54 9 62 109 62 77 0 90 -2 99 -19z m-130 -421 c0 -5 -4 -10 -10 -10 -5 0 -10
5 -10 10 0 6 5 10 10 10 6 0 10 -4 10 -10z m50 -15 c7 -9 8 -15 2 -15 -5 0
-12 7 -16 15 -3 8 -4 15 -2 15 2 0 9 -7 16 -15z"/>
</g>
</svg>
